<svg width="168" height="27" viewBox="0 0 168 27" fill="none" xmlns="http://www.w3.org/2000/svg">
<path d="M12.7928 3.80178C13.0918 2.87959 14.3964 2.87959 14.6954 3.80177L16.4467 9.20443C16.5803 9.61679 16.9645 9.89607 17.3979 9.89607H23.0703C24.0385 9.89607 24.4416 11.1345 23.659 11.7044L19.0659 15.0493C18.7163 15.304 18.57 15.7546 18.7033 16.1661L20.4568 21.5753C20.7556 22.497 19.7001 23.2624 18.9168 22.692L14.3328 19.3537C13.9819 19.0981 13.5063 19.0981 13.1554 19.3537L8.57136 22.692C7.78811 23.2624 6.73262 22.497 7.0314 21.5753L8.78485 16.1661C8.91823 15.7546 8.77193 15.304 8.42226 15.0493L3.8292 11.7044C3.04658 11.1345 3.44973 9.89607 4.41789 9.89607H10.0902C10.5237 9.89607 10.9078 9.61679 11.0415 9.20443L12.7928 3.80178Z" fill="#070707"/>
<path d="M47.89 3.80178C48.1889 2.87959 49.4936 2.87959 49.7925 3.80177L51.5438 9.20443C51.6775 9.61679 52.0616 9.89607 52.4951 9.89607H58.1675C59.1356 9.89607 59.5388 11.1345 58.7562 11.7044L54.1631 15.0493C53.8134 15.304 53.6671 15.7546 53.8005 16.1661L55.554 21.5753C55.8527 22.497 54.7972 23.2624 54.014 22.692L49.43 19.3537C49.0791 19.0981 48.6034 19.0981 48.2526 19.3537L43.6685 22.692C42.8853 23.2624 41.8298 22.497 42.1286 21.5753L43.882 16.1661C44.0154 15.7546 43.8691 15.304 43.5194 15.0493L38.9264 11.7044C38.1437 11.1345 38.5469 9.89607 39.5151 9.89607H45.1874C45.6209 9.89607 46.005 9.61679 46.1387 9.20443L47.89 3.80178Z" fill="#070707"/>
<path d="M82.9872 3.80178C83.2861 2.87959 84.5908 2.87959 84.8897 3.80177L86.641 9.20443C86.7747 9.61679 87.1588 9.89607 87.5923 9.89607H93.2646C94.2328 9.89607 94.6359 11.1345 93.8533 11.7044L89.2603 15.0493C88.9106 15.304 88.7643 15.7546 88.8977 16.1661L90.6511 21.5753C90.9499 22.497 89.8944 23.2624 89.1112 22.692L84.5271 19.3537C84.1762 19.0981 83.7006 19.0981 83.3497 19.3537L78.7657 22.692C77.9824 23.2624 76.927 22.497 77.2257 21.5753L78.9792 16.1661C79.1126 15.7546 78.9663 15.304 78.6166 15.0493L74.0235 11.7044C73.2409 11.1345 73.6441 9.89607 74.6122 9.89607H80.2846C80.7181 9.89607 81.1022 9.61679 81.2358 9.20443L82.9872 3.80178Z" fill="#070707"/>
<path d="M118.084 3.80178C118.383 2.87959 119.688 2.87959 119.987 3.80177L121.738 9.20443C121.872 9.61679 122.256 9.89607 122.689 9.89607H128.362C129.33 9.89607 129.733 11.1345 128.95 11.7044L124.357 15.0493C124.008 15.304 123.861 15.7546 123.995 16.1661L125.748 21.5753C126.047 22.497 124.992 23.2624 124.208 22.692L119.624 19.3537C119.273 19.0981 118.798 19.0981 118.447 19.3537L113.863 22.692C113.08 23.2624 112.024 22.497 112.323 21.5753L114.076 16.1661C114.21 15.7546 114.063 15.304 113.714 15.0493L109.121 11.7044C108.338 11.1345 108.741 9.89607 109.709 9.89607H115.382C115.815 9.89607 116.199 9.61679 116.333 9.20443L118.084 3.80178Z" fill="#070707"/>
<path d="M153.181 3.80178C153.48 2.87959 154.785 2.87959 155.084 3.80177L156.835 9.20443C156.969 9.61679 157.353 9.89607 157.787 9.89607H163.459C164.427 9.89607 164.83 11.1345 164.048 11.7044L159.455 15.0493C159.105 15.304 158.959 15.7546 159.092 16.1661L160.845 21.5753C161.144 22.497 160.089 23.2624 159.305 22.692L154.721 19.3537C154.371 19.0981 153.895 19.0981 153.544 19.3537L148.96 22.692C148.177 23.2624 147.121 22.497 147.42 21.5753L149.174 16.1661C149.307 15.7546 149.161 15.304 148.811 15.0493L144.218 11.7044C143.435 11.1345 143.838 9.89607 144.807 9.89607H150.479C150.912 9.89607 151.297 9.61679 151.43 9.20443L153.181 3.80178Z" fill="#E5E5E5"/>
</svg>
